<svg xmlns="http://www.w3.org/2000/svg" viewBox="0 0 1024 1024"><path fill="#fff" fill-rule="evenodd" d="M693 689h194a48 48 0 0 1 48 48v158a48 48 0 0 1-48 48H693a48 48 0 0 1-48-48V737a48 48 0 0 1 48-48Zm29.667 208.864L781 741.2h-21.667L701 897.864h21.667Zm155.666-62.833V814.2l-74.666-35.166v19.5L852 821.031a39.5 39.5 0 0 0 6.5 2.416q3.332.918 5.167 1.25-1.836.5-5.084 1.5A56.684 56.684 0 0 0 852 828.7l-48.333 22.334V870.2Z" opacity=".8"/><path fill="#fff" fill-rule="evenodd" d="M137 689h410a48 48 0 0 1 48 48v158a48 48 0 0 1-48 48H137a48 48 0 0 1-48-48V737a48 48 0 0 1 48-48Zm96.333 161.7L185 828.364a46.265 46.265 0 0 0-6.5-2.5 51.938 51.938 0 0 0-5.167-1.333 39.55 39.55 0 0 0 5.084-1.417 69.907 69.907 0 0 0 6.583-2.583l48.333-22.331v-19.169L158.667 814.2v20.834l74.666 35.166v-19.5Zm74.084 26.334q4.25-4.164 4.25-11.334t-4.25-11.416q-4.251-4.251-11.417-4.25t-11.417 4.25q-4.25 4.25-4.25 11.416t4.25 11.334Q288.834 881.2 296 881.2t11.417-4.169Zm100 0q4.25-4.164 4.25-11.334t-4.25-11.416q-4.251-4.251-11.417-4.25t-11.417 4.25q-4.25 4.25-4.25 11.416t4.25 11.334Q388.834 881.2 396 881.2t11.417-4.169Zm100 0q4.25-4.164 4.25-11.334t-4.25-11.416q-4.251-4.251-11.417-4.25t-11.417 4.25q-4.25 4.25-4.25 11.416t4.25 11.334Q488.834 881.2 496 881.2t11.417-4.169Z" opacity=".5"/><path fill="#fff" fill-rule="evenodd" d="M137 385h750a48 48 0 0 1 48 48v158a48 48 0 0 1-48 48H137a48 48 0 0 1-48-48V433a48 48 0 0 1 48-48Zm0-304h240a48 48 0 0 1 48 48v158a48 48 0 0 1-48 48H137a48 48 0 0 1-48-48V129a48 48 0 0 1 48-48Zm84.848 190.485a35.879 35.879 0 0 0 14.85-13.75q5.316-8.889 5.317-20.991h-23.1q0 9.35-5.042 14.391t-14.391 5.042q-9.351 0-14.484-5.042t-5.133-14.391V178.26q0-9.35 5.133-14.3t14.484-4.95q9.35 0 14.391 5.042t5.042 14.392h23.1q0-12.1-5.317-20.992a35.918 35.918 0 0 0-14.85-13.75q-9.534-4.856-22.366-4.858-13.02 0-22.55 4.858a35.293 35.293 0 0 0-14.759 13.75q-5.225 8.9-5.225 20.992v58.3q0 12.1 5.225 20.991a35.256 35.256 0 0 0 14.759 13.75q9.53 4.855 22.55 4.859 12.83 0 22.366-4.859ZM323.6 274.51l33.734-133.833h-23.286l-19.616 87.083q-1.65 6.6-3.025 14.025T309.3 253.61q-.735-4.4-2.108-11.825t-3.025-13.841l-20.35-87.267h-23.65L293.9 274.51h29.7Zm-125 301.021q12.6 0 21.787-4.463a34.116 34.116 0 0 0 14.35-12.687 35.461 35.461 0 0 0 5.163-19.25q0-12.247-6.388-20.563a28.216 28.216 0 0 0-17.062-10.587 25.667 25.667 0 0 0 14.962-9.538q5.514-7.26 5.513-17.762 0-15.049-10.938-23.975t-29.312-8.925h-39.2v127.75H198.6Zm-19.775-109.55h17.5q8.748 0 13.737 4.637t4.988 12.513q0 8.051-5.075 12.687t-13.65 4.638h-17.5v-34.475Zm0 52.15H197.2q9.623 0 15.138 5.512t5.512 14.438q0 8.925-5.512 14.087t-15.138 5.163h-18.375v-39.2ZM330.2 567.043q10.673-10.238 10.675-27.912v-59.85H319v59.675q0 9.277-4.638 14.262t-12.862 4.988q-8.4 0-12.95-4.988T284 538.956v-59.675h-21.875v59.85q0 17.678 10.5 27.912t28.875 10.238q18.023 0 28.7-10.238Zm121.45 8.488v-19.775h-29.575v-76.475H370.8v19.775h29.4v56.7h-32.9v19.775h84.35Zm-31.5-115.763a12.887 12.887 0 0 0 0-18.375q-3.852-3.412-10.5-3.412t-10.5 3.412a12.887 12.887 0 0 0 0 18.375q3.847 3.413 10.5 3.413t10.5-3.413Zm136.675 115.763v-19.775H528.65a10.889 10.889 0 0 1-8.313-3.238 12.083 12.083 0 0 1-3.062-8.662v-96.075h-53.55v19.775H495.4v76.825q0 14 8.662 22.575t23.013 8.575h29.75Zm67.813-3.238A25.788 25.788 0 0 0 634 558.206h.175v17.325h21.35v-127.75H633.65v26.95l.7 21.875H634a25.6 25.6 0 0 0-9.45-14.088q-6.825-4.988-16.8-4.987-14.175 0-22.837 9.975t-8.663 26.95v26.075q0 16.8 8.75 26.775t22.75 9.975q10.15 0 16.888-4.988Zm-21.788-18.812q-4.725-4.9-4.725-14v-24.15q0-9.1 4.725-14t13.125-4.9q8.4 0 13.038 5.075t4.637 14.35v23.1q0 9.277-4.637 14.35t-13.038 5.075q-8.4 0-13.125-4.9Zm144.988 16.362a30.59 30.59 0 0 0 13.212-19.862h-21.525q-2.625 9.975-17.675 9.975-19.425 0-19.425-20.475v-6.825h59.325v-17.325a38.492 38.492 0 0 0-4.987-19.863 34.4 34.4 0 0 0-14-13.212q-9.017-4.725-21.088-4.725-12.252 0-21.35 4.725a34.251 34.251 0 0 0-14.088 13.212 38.492 38.492 0 0 0-4.987 19.863v24.15a38.476 38.476 0 0 0 4.987 19.862 34.234 34.234 0 0 0 14.088 13.213q9.1 4.725 21.35 4.725 15.398 0 26.163-7.438Zm-40.6-69.912q4.812-5.423 14.438-5.425 9.45 0 14.175 5.337t4.725 15.313v3.675l-38.15.175v-3.675q-.001-9.975 4.811-15.4Zm104.913 75.6v-58.975q0-20.123 18.025-20.125 8.748 0 13.387 4.987t4.638 13.913v6.3h22.925v-7.875q0-16.8-8.925-26.513t-23.8-9.712q-10.853 0-17.85 5.337a21.8 21.8 0 0 0-8.4 14.788h-.525v-18.375h-21.35v96.25h21.874Z"/><path fill="#fff" fill-rule="evenodd" d="M523 81h364a48 48 0 0 1 48 48v158a48 48 0 0 1-48 48H523a48 48 0 0 1-48-48V129a48 48 0 0 1 48-48Zm78.167 205.031V266.7h-8.5q-6.168 0-9.584-3.083t-2.916-8.583l2.5-26q.831-8.5-4.084-14.334t-13.75-7.5q8.832-1.5 13.75-7t4.084-14l-2.5-26q-.336-5.664 3-8.75t9.5-3.083h8.5V129.2h-11.5q-14.668 0-23.167 7.917t-7.167 21.083l2.5 26.167q.664 6.667-2.333 10.167t-10.333 3.5H527.5V217.2h21.667q7.332 0 10.333 3.5t2.333 10.334l-2.5 25.333q-1.335 13.5 7.167 21.583t23.167 8.084h11.5Zm111.083-87.75a14.186 14.186 0 0 0 0-20.25Q708 174.2 701 174.2t-11.25 3.834a14.186 14.186 0 0 0 0 20.25Q694 202.2 701 202.2t11.25-3.919Zm0 67.083a14.186 14.186 0 0 0 0-20.25Q708 241.2 701 241.2t-11.25 3.917a14.186 14.186 0 0 0 0 20.25Q694 269.2 701 269.2t11.25-3.836Zm100.083 20.667q14.664 0 23.167-8.084t7.167-21.583l-2.5-25.333Q839.5 224.2 842.5 220.7t10.333-3.5H874.5v-19.169h-21.667q-7.335 0-10.333-3.5t-2.333-10.167l2.5-26.167q1.333-13.164-7.167-21.083t-23.167-7.914h-11.5v19.167h8.5q6.165 0 9.5 3.083t3 8.75l-2.5 26q-.836 8.5 4 14t13.834 7q-8.837 1.5-13.75 7.417t-4.084 14.417l2.5 26q.5 5.5-2.916 8.583t-9.584 3.083h-8.5v19.334h11.5Z" opacity=".3"/></svg>